# xmcd CD database file
#
# Track frame offsets:
#	150
#	29392
#	44587
#	72487
#	101235
#	120927
#	130742
#	155387
#	180430
#	192867
#	221742
#	238740
#
# Disc length: 3643 seconds
#
# Revision: 3
# Processed by: cddbd v1.4PL0 Copyright (c) Steve Scherf et al.
# Submitted via: CDex 1.51
#
DISCID=a90e390c
DTITLE=Beau Jocque and The Zydeco Hi-Rollers - Pick Up On This!
DYEAR=1994
DGENRE=Zydeco
TTITLE0=Give It To Me
TTITLE1=Gardez Donci (Look At That)
TTITLE2=Zydeco Boogie Woogie
TTITLE3=Mardi Gras Blues
TTITLE4=Comin' In
TTITLE5=Don't Tell Your Mama
TTITLE6=Yesterday
TTITLE7=Do Right Sometime
TTITLE8=Hucklebuck
TTITLE9=Pick Up On This
TTITLE10=Chere Mignonne (Dear Cute One)
TTITLE11=Hi-Rollers Theme/Low Rider
EXTD=YEAR: 1994
EXTT0=
EXTT1=
EXTT2=
EXTT3=
EXTT4=
EXTT5=
EXTT6=
EXTT7=
EXTT8=
EXTT9=
EXTT10=
EXTT11=
PLAYORDER=
